<!--
Ciao Programming Language Logo (2021) by Jose F. Morales
(and the Ciao Development Team).

This work is licensed under the Creative Commons Attribution
NonCommercial ShareAlike 4.0 International License (CC BY-NC-SA 4.0):
https://creativecommons.org/licenses/by-nc-sa/4.0/
-->
<svg height="8cm" width="20cm" xmlns="http://www.w3.org/2000/svg" xmlns:xlink="http://www.w3.org/1999/xlink"><linearGradient id="a"><stop offset="0" stop-color="#ffb15e"/><stop offset=".71303016" stop-color="#fc5756"/><stop offset="1" stop-color="#fb0050"/></linearGradient><radialGradient id="b" cx="318.6232" cy="147.61876" gradientTransform="matrix(.5555704 .00809043 -.00763061 .52399424 162.67805 81.363322)" gradientUnits="userSpaceOnUse" r="190.92925"><stop offset="0" stop-color="#ffefc0"/><stop offset=".65649629" stop-color="#fcc741"/><stop offset="1" stop-color="#fbb300"/></radialGradient><radialGradient id="c" cx="120.37709" cy="115.79852" gradientTransform="matrix(1.1436476 .60952718 -.63647608 1.1942115 57.807669 -86.651478)" gradientUnits="userSpaceOnUse" r="117.28534"><stop offset="0" stop-color="#e0eefb"/><stop offset=".49999991" stop-color="#0e7fcd"/><stop offset="1" stop-color="#00447e"/></radialGradient><radialGradient id="d" cx="571.672" cy="162.13213" gradientTransform="matrix(1 0 0 1.0035542 0 -.636387)" gradientUnits="userSpaceOnUse" r="102.51783"><stop offset="0" stop-color="#e4ff8a"/><stop offset="1" stop-color="#009838"/></radialGradient><radialGradient id="e" cx="267.29993" cy="174.89258" gradientTransform="matrix(1 0 0 .98165625 0 3.208186)" gradientUnits="userSpaceOnUse" r="106.99973" xlink:href="#a"/><radialGradient id="f" cx="195.01682" cy="100.4916" gradientTransform="matrix(.91106096 -.17787847 .1914016 .98032393 -2.246385 36.645572)" gradientUnits="userSpaceOnUse" r="38.860512" xlink:href="#a"/><g fill-rule="evenodd" stroke-width="9.448819"><g stroke-linejoin="round"><path d="m143.03511 15.470054c54.7512-1.187815 88.9719 35.660414 88.9719 35.660414s-44.12068 39.154296-49.44371 44.155786c-8.21292-4.75438-21.33399-14.26313-40.49548-14.26313-38.96264-.001-70.128457 29.539636-68.759438 67.577756.484238 37.51066 31.082118 64.467 68.440208 64.467 23.57224-.44439 37.27558-11.1991 49.02763-21.67555 9.58193 11.88646 30.81907 34.39265 43.40209 50.76145-28.27593 15.80397-49.44371 34.2639-92.51222 32.4448-65.840865 1.8191-129.068032-50.76041-130.03615-124.80885-1.36878-79.640721 58.857904-134.319676 131.40517-134.319676z" fill="url(#c)" stroke="#2b3187" stroke-linecap="round"/><path d="m200.09825 75.856198c18.99171-.107983 34.13222 14.714788 34.47418 33.867272 0 19.20959-15.67736 34.31374-34.47418 34.31374-18.9379-.17028-33.67787-14.53205-33.79026-34.25975-.40055-18.020735 14.96953-33.858964 33.79026-33.921262z" fill="url(#f)" stroke="#8b0030"/><path d="m171.52461 181.21354c6.8439.17547 58.44337.001 65.70216.001.48424 7.73014-4.10586 27.33844 30.11364 26.14958 26.69169-.59391 32.42431-14.4333 44.99059-32.10309 12.56748-17.66875-9.04399-.98487 14.22695-.98487-.41513 19.79861 11.85212 35.7365 33.25861 45.76105.0921 14.84457 22.79782-5.83266-3.88191 13.70192-26.67974 19.53457-53.68963 39.5965-88.59424 40.1904-71.17824-1.18885-97.18482-46.35801-95.8158-92.71603z" fill="url(#e)" stroke="#8b0030"/></g><path d="m428.96681 250.96786c16.42465 14.85807 36.95755 24.36786 67.07119 24.96177 37.05558-.15263 64.62852-21.65762 79.82643-33.99782 14.11106-11.12642 18.53722 3.15794 18.53722-14.56584-27.65604 7.25816-43.90833-23.81237-56.15654-48.18295-25.83561.15159 14.33226-17.59711 0 0-14.33345 17.59815-19.62248 30.77614-43.57613 31.37005-26.00659-1.18885-34.95363-15.69183-34.78624-36.84823-.48424-43.30022-38.66015-91.527182-95.817-91.527182-53.05099-.966658-97.01863 47.404622-95.65081 93.160432-.96728 49.76468 36.15765 100.59154 100.3246 99.40269 24.63876-1.18782 42.43362-10.69761 60.22728-23.77292zm-64.94172-105.23171c-21.15225 0-33.96962 15.97633-33.9481 33.58693 0 18.37999 12.64879 34.31063 33.90744 34.35631 18.41421 0 33.54516-13.92672 33.52603-33.90257.0203-18.93652-13.76432-33.58589-33.48537-34.04067z" fill="url(#b)" stroke="#f36707"/><path d="m587.32729 82.177603c-58.85946-.642708-99.92286 50.859047-98.55384 96.282597-.68391 48.98907 38.32776 98.01552 96.50091 97.46937 56.80533.64271 96.50091-47.09832 96.50091-98.65926-1.36902-53.4901-45.85676-95.092707-94.44798-95.092707zm-1.83412 65.377597c-19.01562 0-33.76994 14.9183-33.60733 32.62027 0 20.30915 15.30432 34.6896 33.76635 34.28051 18.6067.32084 34.71689-14.02743 34.55309-34.22444-.17935-18.62295-16.55976-32.67634-34.71211-32.67634z" fill="url(#d)" stroke="#006f4d"/></g></svg>
