/* XPM */
static char * cb_arrow_xpm[] = {
"15 11 4 1",
" 	c None",
".	c #FFFFFF",
"+	c #888888",
"@	c #000000",
"               ",
"  ...     ...  ",
" .+@..   ..@+. ",
" .@@@.. ..@@@. ",
" ..@@@...@@@.. ",
"  ..@@@.@@@..  ",
"   ..@@@@@..   ",
"    ..@@@..    ",
"     ..+..     ",
"      ...      ",
"               "};
