/* XPM */
static char * ciao_bg_xpm[] = {
"24 24 299 2",
"  	c None",
". 	c #E6E6E6",
"+ 	c #220049",
"@ 	c #220051",
"# 	c #231565",
"$ 	c #24206E",
"% 	c #23226F",
"& 	c #221969",
"* 	c #220457",
"= 	c #25004B",
"- 	c #230051",
"; 	c #231D6C",
"> 	c #274E95",
", 	c #2C6FB0",
"' 	c #317AB9",
") 	c #317CBA",
"! 	c #2C79B8",
"~ 	c #2572B3",
"{ 	c #1A63A8",
"] 	c #14458F",
"^ 	c #1C1A69",
"/ 	c #240052",
"( 	c #220E5F",
"_ 	c #255399",
": 	c #2F81BF",
"< 	c #3A88C4",
"[ 	c #4088C3",
"} 	c #4189C4",
"| 	c #3E86C2",
"1 	c #357FBD",
"2 	c #2B77B7",
"3 	c #1D6CAF",
"4 	c #0D65AA",
"5 	c #0862A6",
"6 	c #0F4289",
"7 	c #1E1161",
"8 	c #221D6B",
"9 	c #2972B3",
"0 	c #398BC7",
"a 	c #468BC6",
"b 	c #4F92CC",
"c 	c #5395CD",
"d 	c #4F91CA",
"e 	c #478AC4",
"f 	c #3B80BE",
"g 	c #2D77B7",
"h 	c #1B6BAD",
"i 	c #0D5FA5",
"j 	c #09599E",
"k 	c #0464A3",
"l 	c #13327A",
"m 	c #25004E",
"n 	c #231867",
"o 	c #3C86C2",
"p 	c #4D90CB",
"q 	c #599AD1",
"r 	c #62A2D7",
"s 	c #64A5DA",
"t 	c #5AA1D8",
"u 	c #4B98D3",
"v 	c #398AC8",
"w 	c #297CBC",
"x 	c #166AAD",
"y 	c #0A5FA4",
"z 	c #075EA2",
"A 	c #152C77",
"B 	c #250050",
"C 	c #220053",
"D 	c #2B68A9",
"E 	c #3D88C4",
"F 	c #609FD5",
"G 	c #71B1E3",
"H 	c #75B5E6",
"I 	c #4E80C8",
"J 	c #2E4195",
"K 	c #2E2B78",
"L 	c #262675",
"M 	c #14338C",
"N 	c #0652A4",
"O 	c #0860A4",
"P 	c #182571",
"Q 	c #26004C",
"R 	c #283882",
"S 	c #3D8FCA",
"T 	c #5093CC",
"U 	c #61A0D6",
"V 	c #7AB7E8",
"W 	c #7AAEE1",
"X 	c #323184",
"Y 	c #531237",
"Z 	c #A33A18",
"` 	c #C54F0D",
" .	c #C24E0F",
"..	c #9E381B",
"+.	c #4A1745",
"@.	c #120D68",
"#.	c #26004D",
"$.	c #230759",
"%.	c #336CAD",
"&.	c #4B94CE",
"*.	c #5D9DD3",
"=.	c #74B2E3",
"-.	c #7DB2E3",
";.	c #2A1C74",
">.	c #943118",
",.	c #FF8501",
"'.	c #FFAD04",
").	c #FFB80F",
"!.	c #FFB811",
"~.	c #FFAB09",
"{.	c #F57704",
"].	c #9D3A1F",
"^.	c #281F6D",
"/.	c #4191CB",
"(.	c #5497CF",
"_.	c #66A4D9",
":.	c #78B8E8",
"<.	c #363D91",
"[.	c #89291B",
"}.	c #FF9600",
"|.	c #FFBF0C",
"1.	c #FEC714",
"2.	c #FFC618",
"3.	c #FFC71D",
"4.	c #FECB22",
"5.	c #FFC11E",
"6.	c #FF8B00",
"7.	c #2D3983",
"8.	c #4794CD",
"9.	c #5798D0",
"0.	c #65A6DA",
"a.	c #5A94D3",
"b.	c #3D0D48",
"c.	c #F47605",
"d.	c #FFBB07",
"e.	c #FFC30E",
"f.	c #FFC112",
"g.	c #FFC217",
"h.	c #FFC41B",
"i.	c #FFC51F",
"j.	c #FECA27",
"k.	c #FEB11C",
"l.	c #FE7900",
"m.	c #210047",
"n.	c #314A91",
"o.	c #4792CC",
"p.	c #5193CC",
"q.	c #5A9FD5",
"r.	c #3561B4",
"s.	c #742028",
"t.	c #FF9900",
"u.	c #FFC50A",
"v.	c #FFBF0E",
"w.	c #FFC423",
"x.	c #FECB2B",
"y.	c #FE8606",
"z.	c #210049",
"A.	c #304D94",
"B.	c #418DC7",
"C.	c #478BC6",
"D.	c #4A94CD",
"E.	c #234BA3",
"F.	c #832A26",
"G.	c #FFA400",
"H.	c #FFC30A",
"I.	c #FEC00E",
"J.	c #FEC423",
"K.	c #FECC2B",
"L.	c #FE8F0B",
"M.	c #220048",
"N.	c #2B458D",
"O.	c #3684C1",
"P.	c #3780BD",
"Q.	c #1B4FA5",
"R.	c #70202D",
"S.	c #FF9200",
"T.	c #FFC509",
"U.	c #FEBF0E",
"V.	c #FFC212",
"W.	c #FEC929",
"X.	c #FE8505",
"Y.	c #25317C",
"Z.	c #287DBD",
"`.	c #2874B5",
" +	c #2374B5",
".+	c #155FAB",
"++	c #37084A",
"@+	c #F27504",
"#+	c #FFBB05",
"$+	c #FEC40F",
"%+	c #FEC620",
"&+	c #FECD28",
"*+	c #FFB019",
"=+	c #FF7C00",
"-+	c #211565",
";+	c #176DB0",
">+	c #1566AB",
",+	c #0F62A8",
"'+	c #0B64A8",
")+	c #091D79",
"!+	c #862C29",
"~+	c #FF9100",
"{+	c #FCB70D",
"]+	c #FCC615",
"^+	c #FEC618",
"/+	c #FEC81E",
"(+	c #FBC923",
"_+	c #FFB71A",
":+	c #FC7F03",
"<+	c #230255",
"[+	c #104A92",
"}+	c #0862A7",
"|+	c #095BA0",
"1+	c #085DA0",
"2+	c #095397",
"3+	c #120764",
"4+	c #963423",
"5+	c #FF8300",
"6+	c #FFA402",
"7+	c #FFAE0B",
"8+	c #FFAD0D",
"9+	c #FFA105",
"0+	c #FB7700",
"a+	c #6D2334",
"b+	c #180055",
"c+	c #1A1E6C",
"d+	c #075FA1",
"e+	c #08579A",
"f+	c #075597",
"g+	c #055797",
"h+	c #024D90",
"i+	c #0B1069",
"j+	c #400E48",
"k+	c #973423",
"l+	c #C04F14",
"m+	c #BB4B16",
"n+	c #872C28",
"o+	c #2E074F",
"p+	c #011E70",
"q+	c #0F246B",
"r+	c #26004F",
"s+	c #103B82",
"t+	c #045999",
"u+	c #055091",
"v+	c #044E8E",
"w+	c #034F8C",
"x+	c #004E8A",
"y+	c #01347B",
"z+	c #05196C",
"A+	c #060F69",
"B+	c #061069",
"C+	c #051C6E",
"D+	c #00397A",
"E+	c #004981",
"F+	c #004881",
"G+	c #151B64",
"H+	c #27004E",
"I+	c #210658",
"J+	c #0A4184",
"K+	c #01538F",
"L+	c #024B88",
"M+	c #024884",
"N+	c #01447F",
"O+	c #00467F",
"P+	c #004A80",
"Q+	c #02497E",
"R+	c #01497E",
"S+	c #00457E",
"T+	c #00427D",
"U+	c #00437D",
"V+	c #171762",
"W+	c #210456",
"X+	c #0B3577",
"Y+	c #004D85",
"Z+	c #00447E",
"`+	c #004B82",
" @	c #083474",
".@	c #240053",
"+@	c #240051",
"@@	c #151C65",
"#@	c #033D79",
"$@	c #004780",
"%@	c #004880",
"&@	c #033D7A",
"*@	c #151C64",
"=@	c #220254",
"-@	c #230053",
";@	c #161962",
">@	c #0D296D",
",@	c #083373",
"'@	c #073675",
")@	c #073776",
"!@	c #0C2C6E",
"~@	c #151B63",
"{@	c #230154",
"]@	c #29004C",
"^@	c #210455",
"/@	c #220255",
"(@	c #28004E",
". . . . . . . . . . . . . . . . . . . . . . . . ",
". . . . . . . . . + @ # $ % & * = . . . . . . . ",
". . . . . . . - ; > , ' ) ! ~ { ] ^ / . . . . . ",
". . . . . . ( _ : < [ } | 1 2 3 4 5 6 7 . . . . ",
". . . . . 8 9 0 a b c d e f g h i j k l m . . . ",
". . . . n 2 o p q r s t u v w x y z A B . . . . ",
". . . C D E d F G H I J K L M N O P Q . . . . . ",
". . . R S T U V W X Y Z `  ...+.@.#.. . . . . . ",
". . $.%.&.*.=.-.;.>.,.'.).!.~.{.].. . . . . . . ",
". . ^./.(._.:.<.[.}.|.1.2.3.4.5.6.. . . . . . . ",
". . 7.8.9.0.a.b.c.d.e.f.g.h.i.j.k.l.. . . . . . ",
". m.n.o.p.q.r.s.t.u.v.f.g.h.i.w.x.y.. . . . . . ",
". z.A.B.C.D.E.F.G.H.I.f.g.h.i.J.K.L.. . . . . . ",
". M.N.O.P.O.Q.R.S.T.U.V.g.h.i.w.W.X.. . . . . . ",
". . Y.Z.`. +.+++@+#+$+V.g.h.%+&+*+=+. . . . . . ",
". . -+;+>+,+'+)+!+~+{+]+^+/+(+_+:+. . . . . . . ",
". . <+[+}+|+1+2+3+4+5+6+7+8+9+0+a+b+. . . . . . ",
". . . c+d+e+f+g+h+i+j+k+l+m+n+o+p+q+r+. . . . . ",
". . . m s+t+u+v+w+x+y+z+A+B+C+D+E+F+G+H+. . . . ",
". . . . I+J+K+L+M+N+O+P+Q+R+P+S+T+U+O+V+. . . . ",
". . . . . W+X+Y+Z+U+U+Z+Z+Z+Z+U+Z+Z+`+ @.@. . . ",
". . . . . . +@@@#@$@E+%@$@$@$@E+%@&@*@=@. . . . ",
". . . . . . . . -@;@>@,@'@)@ @!@~@{@. . . . . . ",
". . . . . . . . . . ]@-@^@W+/@(@. . . . . . . . "};
