/* XPM */
static char * ciaoprompt_bg_xpm[] = {
"16 14 6 1",
" 	c None",
".	c #E6E6E6",
"+	c #FF0000",
"@	c #FFFFFF",
"#	c #000000",
"$	c #7F7F7F",
"...++++++.......",
"..+@++++++......",
".+@++##+++#.....",
".+++#..+++#.....",
"..##...+++#.....",
"......+++#......",
".....+++#.++++++",
"....++##..++++++",
"....++++#..#####",
"....$+#$........",
"....$@++........",
"....++++$.......",
".....++#$.......",
"......#$........"};
