/* XPM */
static char *ciaostorequery[]={
"24 24 9 1",
". c None",
"b c #000000",
"c c #010101",
"e c #626262",
"g c #7f7f7f",
"d c #9e9e9e",
"f c #e6e6e6",
"# c #ff0000",
"a c #ffffff",
"........................",
"........................",
".....######.............",
"....#a######............",
"...#a##bb###bcc.........",
"...###b..###bdec........",
"....bb...###bfdc........",
".......c###bffddc.......",
".....cc###bf######......",
"...ccd##bbff######......",
"..cdff####bffbbbbb......",
"..cedfg#bgffffffdec.....",
"...cdfga##fffffdddc.....",
"...ced####gffddeedec....",
"....cdf##bgddeeededc....",
"....cedfbgdedffededec...",
".....cdddefffffdedecc...",
".....ceddffeffffddccc...",
"......cddefcdffdecc.....",
"......ceddffdfdcc.......",
".......cedefdcc.........",
"........ccccc...........",
"........................",
"........................"};
