/* XPM */
static char * ciaoexeout_bg_xpm[] = {
"24 24 29 1",
" 	c None",
".	c #E6E6E6",
"+	c #B955C43CD21B",
"@	c #B955C43CD21B",
"#	c #B955C43CD21B",
"$	c #10B44B829658",
"%	c #A94FB766C955",
"&	c #591980FCB3BF",
"*	c #C8BFD0FEDB7D",
"=	c #7E6E7E",
"-	c #371710",
";	c #21CD58789E0C",
">	c #A202AD56BBC0",
",	c #A5A5A5",
"'	c #6e1e00",
")	c #C36200",
"!	c #98ABA9EBBFE0",
"~	c #767637",
"{	c #7f3f00",
"]	c #894900",
"^	c #21CD58789E0C",
"/	c #008000",
"(	c #FED25A",
"_	c #AB5201",
":	c #7b2b00",
"<	c #DEA537",
"[	c #CAB2CA",
"}	c #808000",
"|	c #431572DBAFAA",
".......+@#$$$$#@+.......",
"......%&$$$$$$$$&%......",
"....*&$$$$$$$$$$$$&*....",
"...#$$$$$$$$$$$$$$$$#...",
"..*$$$$$$$&%%&$$$$$$$*..",
"..&$$$$$#@=--=@#$$$$$;*.",
".%$$$$;>,.'))'.,>;$$$!..",
"+&$$$$>~{]'))']{~>^/....",
"@$$$$#,{(_:<<:_({,[//...",
"#$$$$@.]_((((((_]..///..",
"$$$$&='':((((((:'..////.",
"$$$$%-}}(((/////////////",
"$$$$%-}}(((/////////////",
"$$$$&='':((((((:'..////.",
"#$$$$@.]_((((((_]..///..",
"@$$$$#,{(_:<<:_({,[//...",
"+&$$$$>~{]'))']{~>^//...",
".%$$$$;>,.'))'.,>;$/|...",
"..&$$$$$#@=--=@#$$$$$;*.",
"..*$$$$$$$&%%&$$$$$$$*..",
"...#$$$$$$$$$$$$$$$$#...",
"....*&$$$$$$$$$$$$&*....",
"......%&$$$$$$$$&%......",
".......+@#$$$$#@+......."};
