/* XPM */
static char * ciaoscrt_xpm[] = {
"24 24 57 1",
" 	c None",
".	c #878787",
"+	c #9F9F9F",
"@	c #8F7F8F",
"#	c #1666CA",
"$	c #135BB5",
"%	c #104C96",
"&	c #104B96",
"*	c #979797",
"=	c #929292",
"-	c #CECECE",
";	c #FFFFFF",
">	c #5197ED",
",	c #1566C9",
"'	c #DFDFDF",
")	c #606060",
"!	c #626262",
"~	c #7DB1F1",
"{	c #166AD2",
"]	c #989898",
"^	c #747474",
"/	c #67A4EF",
"(	c #0F4991",
"_	c #BFBFBF",
":	c #DBDBDB",
"<	c #7F7F7F",
"[	c #585858",
"}	c #202020",
"|	c #525252",
"1	c #A8CBF6",
"2	c #404040",
"3	c #0D3E7B",
"4	c #0C3B74",
"5	c #092C57",
"6	c #1258AE",
"7	c #242424",
"8	c #0F4589",
"9	c #438EEB",
"0	c #C36200",
"a	c #3E8BEA",
"b	c #303030",
"c	c #7F7F3F",
"d	c #7F3F00",
"e	c #11509F",
"f	c #D4E5FA",
"g	c #FED25A",
"h	c #9F9F10",
"i	c #7F7F20",
"j	c #DEA537",
"k	c #BED8F8",
"l	c #458FEB",
"m	c #1975E7",
"n	c #CFCFCF",
"o	c #281828",
"p	c #200020",
"q	c #380038",
"r	c #0C0C0C",
".++++++@#$%&&%$#@+*=-   ",
"+;;;;;>,%%%&&%%%,>')!   ",
"+;;;~#%%%%%%%%%%%%{]^)  ",
"+;;/%%%%%%%%%%%%%%(_:^!-",
"+;~%%%%%%%,>>,%%%%(<<[}|",
"+;#%%%%%/1@22@1/%%345567",
"+>%%%%89_;<00<;_98%%$a'b",
"@,%%%%9cd+<00<+dc9e>f;'b",
"#%%%%/_dghijjihgd_k;;;'b",
"$%%%%1;+hggggggh+;;;;;'b",
"%%%%,@<<iggggggi<<+;;;'b",
"&&%%>200jggggggj002;;;'b",
"&&%%>200jggggggj002;;;'b",
"%%%%,@<<iggggggi<<+;;;'b",
"$%%%%1;+hggggggh+;;;;;'b",
"#%%%%/_dghijjihgd_k;;;'b",
"@,%%%%9cd+<00<+dc9e>f;'b",
"+>%%%%89_;<00<;_98%%$;'b",
"+;#%%%%%/1@22@1/%%%%%8lb",
"+;~%%%%%%%,>>,%%%%%%%~'b",
"+;;/%%%%%%%%%%%%%%%%/;'b",
"+;;;~#%%%&%%%%&%%%#~;;'b",
"*'''''m6%&&&&&&%6m''''nb",
"7bbbbbbopq&&&&qpobbbbbbr"};
