/* XPM */
static char *ciaoclearquery[]={
"24 24 5 1",
". c None",
"# c #000000",
"c c #7f7f7f",
"a c #ff0000",
"b c #ffffff",
"........................",
"........................",
"........................",
"..........#....##.......",
"..........##..####......",
"...........##.###.......",
"......aaaaa#####........",
".....abaaaaa###.........",
"....abaa##aa####........",
"....aaa#..a######.......",
".....##...a#######......",
".........a###..####.....",
"........aa##.aaa##a.....",
".......aa##..aaaaaa.....",
".......aaaa#..#####.....",
".......ca#c.............",
".......cbaa.............",
".......aaaac............",
"........aa#c............",
".........#c.............",
"........................",
"........................",
"........................",
"........................"};
