/* XPM */
static char * ciaopl_xpm[] = {
"24 24 59 1",
" 	c None",
".	c #979797",
"+	c #9F9F9F",
"@	c #8F8F8F",
"#	c #9B9B9B",
"$	c #FFFFFF",
"%	c #BFBFBF",
"&	c #505050",
"*	c #894900",
"=	c #A4A4A4",
"-	c #565656",
";	c #DFDFDF",
">	c #585858",
",	c #838383",
"'	c #A8CBF6",
")	c #5197ED",
"!	c #7F7F7F",
"~	c #777777",
"{	c #101010",
"]	c #1666CA",
"^	c #11509F",
"/	c #104C96",
"(	c #609FEE",
"_	c #C7C7C7",
":	c #371710",
"<	c #E9F2FD",
"[	c #267DE8",
"}	c #104B96",
"|	c #BED8F8",
"1	c #CFCFCF",
"2	c #7DB1F1",
"3	c #67A4EF",
"4	c #8F2070",
"5	c #E7CF18",
"6	c #FED25A",
"7	c #B77048",
"8	c #0F4589",
"9	c #DFBF20",
"0	c #9F9F00",
"a	c #CF9F70",
"b	c #404000",
"c	c #FFFF10",
"d	c #FFFF9F",
"e	c #7F3F00",
"f	c #000000",
"g	c #C36200",
"h	c #BFBF7F",
"i	c #FFFF30",
"j	c #E2EEFC",
"k	c #AF5F50",
"l	c #F7EF08",
"m	c #973097",
"n	c #D4E5FA",
"o	c #BF7F40",
"p	c #1566C9",
"q	c #135BB5",
"r	c #3E8BEA",
"s	c #4F4F4F",
"t	c #303030",
"  .+++++++++++++@#      ",
"  .$$$$$$$$$$$$$%&*     ",
"  .$$$$$$$$$$$$$%=-*    ",
"  .$$$$$$$$$$$$$%;%>,   ",
"  .$$$$$$$'))))$%!~&{*  ",
"  .$$$$$$]^////](_%%#:  ",
"  .$$$<[///}}}////|$1:  ",
"  .$$$[///}}}}////2$1:  ",
"  .$$$///}}}}}///3$$1:  ",
"  .$$]//}}4566782$$$1:  ",
"  .$'^/}}490066a$$$$1:  ",
"  .$)//}}56bb66cd$$$1:  ",
"  .$)//}}6666eff!$$$1:  ",
"  .$)//}}6600geeh$$$1:  ",
"  .$)//}}76bb66ij$$$1:  ",
"  .$$]//}}kl665mn$$$1:  ",
"  .$$2///}}koo4}pn$$1:  ",
"  .$$$/////}}}}//q$$1:  ",
"  .$$$|^//////////r$1:  ",
"  .$$$$')///////p)$$1:  ",
"  .$$$$$$'[////'n$$$1:  ",
"  .$$$$$$$$$$$$$$$$$1:  ",
"  .;;;;;;;;;;;;;;;;;_:  ",
"  stttttttttttttttttt:  "};
