/* XPM */
static char * ciaopl_bg_xpm[] = {
"24 24 61 1",
" 	c None",
".	c #E6E6E6",
"+	c #979797",
"@	c #9F9F9F",
"#	c #8F8F8F",
"$	c #9B9B9B",
"%	c #FFFFFF",
"&	c #BFBFBF",
"*	c #505050",
"=	c #894900",
"-	c #A4A4A4",
";	c #565656",
">	c #DFDFDF",
",	c #585858",
"'	c #838383",
")	c #A8CBF6",
"!	c #5197ED",
"~	c #7F7F7F",
"{	c #777777",
"]	c #101010",
"^	c #1666CA",
"/	c #11509F",
"(	c #104C96",
"_	c #609FEE",
":	c #C7C7C7",
"<	c #371710",
"[	c #E9F2FD",
"}	c #267DE8",
"|	c #BED8F8",
"1	c #CFCFCF",
"2	c #104B96",
"3	c #7DB1F1",
"4	c #67A4EF",
"5	c #8F2070",
"6	c #E7CF18",
"7	c #FED25A",
"8	c #B77048",
"9	c #0F4589",
"0	c #DFBF20",
"a	c #9F9F00",
"b	c #CF9F70",
"c	c #404000",
"d	c #FFFF10",
"e	c #FFFF9F",
"f	c #7F3F00",
"g	c #000000",
"h	c #C36200",
"i	c #BFBF7F",
"j	c #FFFF30",
"k	c #FFFFDF",
"l	c #AF5F50",
"m	c #F7EF08",
"n	c #973097",
"o	c #EFDFEF",
"p	c #BF7F40",
"q	c #1566C9",
"r	c #D4E5FA",
"s	c #135BB5",
"t	c #3E8BEA",
"u	c #4F4F4F",
"v	c #303030",
"..+@@@@@@@@@@@@@#$......",
"..+%%%%%%%%%%%%%&*=.....",
"..+%%%%%%%%%%%%%&-;=....",
"..+%%%%%%%%%%%%%&>&,'...",
"..+%%%%%%%)!!!!%&~{*]=..",
"..+%%%%%%^/((((^_:&&$<..",
"..+%%%[}((((((((((|%1<..",
"..+%%%}((((((2((((3%1<..",
"..+%%%((((22222((4%%1<..",
"..+%%^(((25677893%%%1<..",
"..+%)/(((50aa77b%%%%1<..",
"..+%!((((67cc77de%%%1<..",
"..+%!((((7777fgg~%%%1<..",
"..+%!((((77aahffi%%%1<..",
"..+%!((((87cc77jk%%%1<..",
"..+%%^(((2lm776no%%%1<..",
"..+%%3(((((lpp5(qr%%1<..",
"..+%%%(((((2222((s%%1<..",
"..+%%%|/(((2222(((t%1<..",
"..+%%%%)!((2222(q!%%1<..",
"..+%%%%%%)}2222)r%%%1<..",
"..+%%%%%%%%%%%%%%%%%1<..",
"..+>>>>>>>>>>>>>>>>>:<..",
"..uvvvvvvvvvvvvvvvvvv<.."};
