/* XPM */
static char *ciaodebug[]={
"24 24 19 1",
". c None",
"h c #000000",
"m c #7f7f7f",
"c c #10B44B829658",
"i c #21CD58789E0C",
"n c #21CD58789E0C",
"k c #431572DBAFAA",
"e c #591980FCB3BF",
"j c #A202AD56BBC0",
"l c #98ABA9EBBFE0",
"d c #A94FB766C955",
"b c #B955C43CD21B",
"f c #C8BFD0FEDB7D",
"a c #B955C43CD21B",
"o c #cab2ca",
"# c #B955C43CD21B",
"q c #d9d9d9",
"g c #FED25A",
"p c #ffffff",
".......#abccccba#.......",
"......decccccccced......",
"....feccccccccccccef....",
"...bcccccccaaaccccccb...",
"..fcccccaaagggaacccccf..",
"..ecccccaghggghgaccccif.",
".dccccajggghhhgggacckl..",
"#eccccjggmhhhhhmggnd#...",
"accccaggmmhhhhhmmgo.....",
"bcccaagghhphhhmhhgg.....",
"ccccaggmhphmmmhhhmg.....",
"cccedghhhphhqhhhhhh.....",
"cccedgghhhhhqhhhhhg.....",
"ccccegghhhhhqhhhhhg.....",
"bcccaghmhhhhqhhhhmh.....",
"accccagghhhhqhhhhgg.....",
"#ecccaghmhhhqhhhmggd#...",
".dccccaggmhhqhhmgacck...",
"..ecccccgggmqmggaccccif.",
"..fccccccggggggccccccf..",
"...bccccccccccccccccb...",
"....feccccccccccccef....",
"......decccccccced......",
".......#abccccba#......."};
