/* XPM */
static char * ciaopeval_xpm[] = {
"24 24 18 1",
" 	c None",
".	c #B955C43CD21B",
"+	c #B955C43CD21B",
"@	c #B955C43CD21B",
"#	c #10B44B829658",
"$	c #A94FB766C955",
"%	c #591980FCB3BF",
"&	c #C8BFD0FEDB7D",
"*	c #000000",
"=	c #21CD58789E0C",
"-	c #FFFFFF",
";	c #808080",
">	c #431572DBAFAA",
",	c #98ABA9EBBFE0",
"'	c #C0C0C0",
")	c #CAB2CA",
"!	c #A202AD56BBC0",
"~	c #21CD58789E0C",
"        .+@####@+.      ",
"       $%########%$     ",
"     &%############%&   ",
"    @################@  ",
"   &#######%$$%#######& ",
"   %###*#@+    +@#####=&",
"  $###*-* *; *******#>, ",
" .%##*-'-*-* *******$.  ",
" +##*-'''--*       )    ",
" @###*''''-* ********   ",
" ####%*'''-*            ",
" ####*'''''* *****      ",
" ####;******            ",
" ####%       ********   ",
" @####+      ********   ",
" +####@            )    ",
" .%####!     **** !~$.  ",
"  $####=!        !=##>  ",
"   %#####@+  ******###=&",
"   &#######%$$%#######& ",
"    @################@  ",
"     &%############%&   ",
"       $%########%$     ",
"        .+@####@+.      "};
