/* XPM */
static char * ciaoscrt_bg_xpm[] = {
"24 24 60 1",
" 	c None",
".	c #878787",
"+	c #9F9F9F",
"@	c #267DE8",
"#	c #1666CA",
"$	c #135BB5",
"%	c #104C96",
"&	c #104B96",
"*	c #979797",
"=	c #929292",
"-	c #CECECE",
";	c #E6E6E6",
">	c #FFFFFF",
",	c #5197ED",
"'	c #1566C9",
")	c #DFDFDF",
"!	c #606060",
"~	c #626262",
"{	c #7DB1F1",
"]	c #166AD2",
"^	c #989898",
"/	c #747474",
"(	c #67A4EF",
"_	c #0F4991",
":	c #BFBFBF",
"<	c #DBDBDB",
"[	c #7F7F7F",
"}	c #585858",
"|	c #202020",
"1	c #525252",
"2	c #A8CBF6",
"3	c #8F7F8F",
"4	c #404040",
"5	c #0D3E7B",
"6	c #0C3B74",
"7	c #092C57",
"8	c #1258AE",
"9	c #242424",
"0	c #0F4589",
"a	c #438EEB",
"b	c #C36200",
"c	c #3E8BEA",
"d	c #303030",
"e	c #7F7F3F",
"f	c #7F3F00",
"g	c #1257AC",
"h	c #11509F",
"i	c #D4E5FA",
"j	c #FED25A",
"k	c #9F9F10",
"l	c #7F7F20",
"m	c #DEA537",
"n	c #BED8F8",
"o	c #458FEB",
"p	c #1975E7",
"q	c #CFCFCF",
"r	c #061D3A",
"s	c #030F1D",
"t	c #051A33",
"u	c #0C0C0C",
".++++++@#$%&&&$#@+*=-;;;",
"+>>>>>,'%%%&&&%%',)!~;;;",
"+>>>{#%%%%%%%%%%%%]^/!;;",
"+>>(%%%%%%%%%%%%%%_:</~-",
"+>{%%%%%%%',,'%%%%_[[}|1",
"+>#%%%%%(234432(%%567789",
"+,%%%%0a:>[bb[>:a0%%$c)d",
"3'%%%%aef+[bb[+fgah,i>)d",
"#%%%%(:fjklmmlkjf:n>>>)d",
"$%%%%2>+kjjjjjjk+>>>>>)d",
"%%%%'3[[ljjjjjjl[[+>>>)d",
"&&%%,4bbmjjjjjjmbb4>>>)d",
"&&%%,4bbmjjjjjjmbb4>>>)d",
"%%%%'3[[ljjjjjjl[[+>>>)d",
"$%%%%2>+kjjjjjjk+>>>>>)d",
"#%%%%(:fjklmmlkjf:n>>>)d",
"3'%%%%aef+[bb[+feah,i>)d",
"+,%%%%0a:>[bb[>:a0%%$>)d",
"+>#%%%%%(234432(%%%%%0od",
"+>{%%%%%%%',,'%%%%%%%{)d",
"+>>(%%%%%%%%%%%%%%%%(>)d",
"+>>>{#%%%%%%%%%%%%#{>>)d",
"*)))))p8%%&&&&%%8p))))qd",
"9ddddddrst&&&&tsrddddddu"};
