/* XPM */
static char * ciaoasr_bg_xpm[] = {
"24 24 35 1",
" 	c None",
".	c #E6E6E6",
"+	c #979797",
"@	c #9F9F9F",
"#	c #8F8F8F",
"$	c #9B9B9B",
"%	c #FFFFFF",
"&	c #BFBFBF",
"*	c #505050",
"=	c #894900",
"-	c #A4A4A4",
";	c #565656",
">	c #DFDFDF",
",	c #585858",
"'	c #838383",
")	c #7F7F7F",
"!	c #777777",
"~	c #101010",
"{	c #808080",
"]	c #C7C7C7",
"^	c #371710",
"/	c #F7F7F7",
"(	c #AFAFAF",
"_	c #E7E7E7",
":	c #CFCFCF",
"<	c #B7B7B7",
"[	c #878787",
"}	c #707070",
"|	c #606060",
"1	c #5F5F5F",
"2	c #303030",
"3	c #3F3F3F",
"4	c #404040",
"5	c #EFEFEF",
"6	c #4F4F4F",
"..+@@@@@@@@@@@@@#$......",
"..+%%%%%%%%%%%%%&*=.....",
"..+%%%%%%%%%%%%%&-;=....",
"..+%%%%%%%%%%%%%&>&,'...",
"..+%%%%%%%>&&&&%&)!*~=..",
"..+%%%%%%@#{{{{@&]&&$^..",
"..+%%%/({{{{{{{{{{_%:^..",
"..+%%%({{{{{{{{{{{:%:^..",
"..+%%%{{{{{{{{{{{]%%:^..",
"..+%%@{{{{#_%%<[:%%%:^..",
"..+%>#{{{#>%%%%:%%%%:^..",
"..+%&{{{{_%}}%}}%%%%:^..",
"..+%&{{{{%%}|12%%%%%:^..",
"..+%&{{{{%%%13)@%%%%:^..",
"..+%&{{{{<%}2>44%%%%:^..",
"..+%%@{{{{(/%%_+5%%%:^..",
"..+%%:{{{{{(&&#{@5%%:^..",
"..+%%%{{{{{{{{{{{+%%:^..",
"..+%%%_#{{{{{{{{{{<%:^..",
"..+%%%%>&{{{{{{{@&%%:^..",
"..+%%%%%%>({{{{>5%%%:^..",
"..+%%%%%%%%%%%%%%%%%:^..",
"..+>>>>>>>>>>>>>>>>>]^..",
"..6222222222222222222^.."};
