/* XPM */
static char * ciaostorequery_bg_xpm[] = {
"24 24 9 1",
" 	c None",
".	c #E6E6E6",
"+	c #FF0000",
"@	c #FFFFFF",
"#	c #000000",
"$	c #010101",
"%	c #9E9E9E",
"&	c #626262",
"*	c #7F7F7F",
"........................",
"........................",
".....++++++.............",
"....+@++++++............",
"...+@++##+++#$$.........",
"...+++#..+++#%&$........",
"....##...+++#.%$........",
".......$+++#..%%$.......",
".....$$+++#.++++++......",
"...$$%++##..++++++......",
"..$%..++++#..#####......",
"..$&%.*+#*......%&$.....",
"...$%.*@++.....%%%$.....",
"...$&%++++*..%%&&%&$....",
"....$%.++#*%%&&&%&%$....",
"....$&%.#*%&%..&%&%&$...",
".....$%%%&.....%&%&$$...",
".....$&%%..&....%%$$$...",
"......$%%&.$%..%&$$.....",
"......$&%%..%.%$$.......",
".......$&%&.%$$.........",
"........$$$$$...........",
"........................",
"........................"};
