/* XPM */
static char * ciaoitf_bg_xpm[] = {
"24 24 33 1",
" 	c None",
".	c #E6E6E6",
"+	c #979797",
"@	c #9F9F9F",
"#	c #8F8F8F",
"$	c #9B9B9B",
"%	c #FFFFFF",
"&	c #BFBFBF",
"*	c #505050",
"=	c #894900",
"-	c #A4A4A4",
";	c #565656",
">	c #DFDFDF",
",	c #585858",
"'	c #838383",
")	c #7F7F7F",
"!	c #777777",
"~	c #101010",
"{	c #808080",
"]	c #C7C7C7",
"^	c #371710",
"/	c #F7F7F7",
"(	c #AFAFAF",
"_	c #E7E7E7",
":	c #CFCFCF",
"<	c #B7B7B7",
"[	c #878787",
"}	c #404040",
"|	c #707070",
"1	c #202020",
"2	c #303030",
"3	c #EFEFEF",
"4	c #4F4F4F",
"..+@@@@@@@@@@@@@#$......",
"..+%%%%%%%%%%%%%&*=.....",
"..+%%%%%%%%%%%%%&-;=....",
"..+%%%%%%%%%%%%%&>&,'...",
"..+%%%%%%%>&&&&%&)!*~=..",
"..+%%%%%%@#{{{{@&]&&$^..",
"..+%%%/({{{{{{{{{{_%:^..",
"..+%%%({{{{{{{{{{{:%:^..",
"..+%%%{{{{{{{{{{{]%%:^..",
"..+%%@{{{{#_%%<[::%%:^..",
"..+%>#{{{#>%%%%:%}@%:^..",
"..+%&{{{{_%%%@}}}~~@:^..",
"..+%&{{{{%%:}%%%%}|%:^..",
"..+%&{{{{%&11)))&@%%:^..",
"..+%&{{{{<>22&&&>%%%:^..",
"..+%%@{{{{(/|%_+3%%%:^..",
"..+%%:{{{{{(&&#{@3%%:^..",
"..+%%%{{{{{{{{{{{+%%:^..",
"..+%%%_#{{{{{{{{{{<%:^..",
"..+%%%%>&{{{{{{{@&%%:^..",
"..+%%%%%%>({{{{>3%%%:^..",
"..+%%%%%%%%%%%%%%%%%:^..",
"..+>>>>>>>>>>>>>>>>>]^..",
"..4222222222222222222^.."};
