/* XPM */
static char * clear_bg_xpm[] = {
"24 24 11 1",
" 	c None",
".	c #E6E6E6",
"+	c #000000",
"@	c #010101",
"#	c #E3E3D7",
"$	c #D3CEBA",
"%	c #CEAB99",
"&	c #8D9778",
"*	c #AEC19B",
"=	c #5E6852",
"-	c #7C8B6E",
"........................",
"........................",
"...............+....++..",
"...............++..++++.",
"................++.+++..",
"................+++++...",
".............@@@.+++....",
"...........@@#$%@++++...",
"...........@###$++++++..",
".......@@@@@@@#%++@++++.",
".......@&$##*@%++%@.++++",
"........@=**=@%+%&@..++.",
"......@@#$*==@%%%@......",
"....@@#$$*&==@%%@@......",
"...@#$$**&=@=@@@........",
"....@#***=@.@@..........",
".....@#*-=@.............",
"......@*=@..............",
".......@=@..............",
"........@...............",
"........................",
"........................",
"........................",
"........................"};
