/* XPM */
static char *complete[]={
"24 24 7 1",
". c None",
"# c #000000",
"d c #008000",
"c c #00ff00",
"e c #93b28d",
"a c #b3c8af",
"b c #e0e9df",
"........................",
"........................",
"........................",
"........................",
".........#####..........",
"........#abbbb#.........",
".......#bbbbbbb#..c.....",
"......#aba###aba#.dc....",
".......#b#...#bb#.ddc...",
".......b#....#ba#.dddc..",
".cccccccccccccccccddddc.",
".ddddddddddddddddddddddc",
".cccccccccccccccccddddc.",
".........#ebe#....dddc..",
".........#be#.....ddc...",
".........####.....dc....",
"..................c.....",
"..........##............",
".........#ba#...........",
".........#ae#...........",
"..........##............",
"........................",
"........................",
"........................"};
