/* XPM */
static char * glasses_bg_xpm[] = {
"24 24 4 1",
" 	c None",
".	c #E6E6E6",
"+	c #000000",
"@	c #04E9F9",
"........................",
"........................",
"........................",
"........................",
"........................",
"........................",
"........................",
"........................",
".....++++......++++.....",
".....+@@@+....+@@@+.....",
"....+@@@@@++++@@@@@+....",
"...++@@@@@+@@+@@@@@++...",
"..+@+@@@@@@++@@@@@@+@+..",
".+@@+@@@@@+..+@@@@@+@@+.",
"+@@+.+@@@+....+@@@+.+@@+",
"+@+...+++......+++...+@+",
"+@+..................+@+",
"+++..................+++",
"........................",
"........................",
"........................",
"........................",
"........................",
"........................"};
