/* XPM */
static char * left_arrow_bg_xpm[] = {
"24 24 44 1",
" 	c None",
".	c #E6E6E6",
"+	c #000000",
"@	c #B9D0B9",
"#	c #CDDECB",
"$	c #B6C7B6",
"%	c #B1C9B0",
"&	c #B3C4B3",
"*	c #B4CBB2",
"=	c #B5CEB5",
"-	c #B7CCB5",
";	c #B9CEB7",
">	c #BAD1BA",
",	c #BBCFBA",
"'	c #BBD0B9",
")	c #B2C9B0",
"!	c #7EAB78",
"~	c #AAC7A8",
"{	c #B3CAB1",
"]	c #B0C9B0",
"^	c #B0C9AE",
"/	c #AEC7AC",
"(	c #AAC5A8",
"_	c #A9C4A7",
":	c #698267",
"<	c #2D2D2D",
"[	c #CFDFCC",
"}	c #ADC8AB",
"|	c #B0C7AE",
"1	c #ADC6AB",
"2	c #678C63",
"3	c #9BAD9A",
"4	c #85AE81",
"5	c #87AF84",
"6	c #87B083",
"7	c #88AF84",
"8	c #88B085",
"9	c #86AF82",
"0	c #547150",
"a	c #3C5235",
"b	c #5B7950",
"c	c #4A6342",
"d	c #3B5035",
"e	c #415639",
"........................",
"........................",
"........................",
"............+...........",
"...........++...........",
"..........+@+...........",
".........+#$+...........",
"........+#%&++++++++....",
".......+#*=-;>;,')!+....",
"......+#~{]^/(((/_:+....",
".....<[}|11}~//|/}2+....",
"....+34555556756890+....",
".....+abbbbbbbbbbbc+....",
"......+abbbbbbbbbbc+....",
".......+abbcdddddde+....",
"........+abc++++++++....",
".........+ac+...........",
"..........+c+...........",
"...........++...........",
"............+...........",
"........................",
"........................",
"........................",
"........................"};
