/* XPM */
static char * lpdoc_bg_xpm[] = {
"24 24 21 1",
" 	c None",
".	c #E6E6E6",
"+	c #B955C43CD21B",
"@	c #B955C43CD21B",
"#	c #B955C43CD21B",
"$	c #10B44B829658",
"%	c #A94FB766C955",
"&	c #591980FCB3BF",
"*	c #000000",
"=	c #C8BFD0FEDB7D",
"-	c #A5A595",
";	c #D3D3BC",
">	c #EAEAD2",
",	c #21CD58789E0C",
"'	c #616160",
")	c #A202AD56BBC0",
"!	c #431572DBAFAA",
"~	c #98ABA9EBBFE0",
"{	c #21CD58789E0C",
"]	c #CAB2CA",
"^	c #828274",
".......+@#$$$$#@+.......",
"......%&$$$$*$$$&%......",
"....=&$$$$**-*$$$$&=....",
"...#$$$$**-;>*$$$$$$#...",
"..=$$$**-;;;;>*$$$$$$=..",
"..&$**-;;;;;;>-*$$$$$,=.",
".%$*'';;;;;;>>>'),$$!~..",
"+&$*>';;;;;>>>>>*){%+...",
"@$$*>>';;;>>>>>>-*].....",
"#$$*>>'-;;>>>>>>>*......",
"$$$*>'-;;>>>>>>>>>*.....",
"$$$**-;;>>>>>>>>>>;*....",
"$$$*';;;>>>>>>>>>>>;*...",
"$$$*-;;>>>>>>>>>>>>^*...",
"#$$$*>>>>>>>>>>>>>**....",
"@$$$*;>>>>>>>>>>;*].....",
"+&$$$'>>>>>>>>>^*){%+...",
".%$$$*>>>>>>>;*.),$$!...",
"..&$$$*>>>>>-*@#$$$$$,=.",
"..=$$$*;>>;'*&$$$$$$$=..",
"...#$$$*>-*$$$$$$$$$#...",
"....=&$$**$$$$$$$$&=....",
"......%&$$$$$$$$&%......",
".......+@#$$$$#@+......."};
