/* XPM */
static char *lpdocview[]={
"24 24 22 1",
". c None",
"f c #000000",
"l c #616160",
"c c #10B44B829658",
"t c #828274",
"k c #21CD58789E0C",
"r c #21CD58789E0C",
"n c #431572DBAFAA",
"e c #591980FCB3BF",
"m c #A202AD56BBC0",
"p c #a0a0a4",
"h c #a5a595",
"o c #98ABA9EBBFE0",
"d c #A94FB766C955",
"b c #B955C43CD21B",
"g c #C8BFD0FEDB7D",
"a c #B955C43CD21B",
"s c #cab2ca",
"# c #B955C43CD21B",
"i c #d3d3bc",
"j c #eaead2",
"q c #ffffff",
".......#abccccba#.......",
"......deccccfccced......",
"....geccccffhfcccceg....",
"...bccccffhijfccccccb...",
"..gcccffhiiiijfccccccg..",
"..ecffhiiiiiijhfccccckg.",
".dcflliiiffffjjlmkccno..",
"#ecfjlipfiqqjfpjfmrd#...",
"accfjjlfqqppqqfphfs.....",
"bccfjjfhqpqqqqjfjf......",
"cccfjlfqqqqqqqqfjjf.....",
"cccffhfqqqqqqqqfjjif....",
"cccflifiqqqqqqjfjjjif...",
"cccfhipfqqqqqqfpjjjtf...",
"bcccfjjpfjqqjfffjjff....",
"acccfijjpffffpffffs.....",
"#ecccljjjppppppfffrd#...",
".dcccfjjjjjjjippfffcn...",
"..ecccfjjjjjhfappfffckg.",
"..gcccfijjilfeccppfffg..",
"...bcccfjhfccccccppfp...",
"....geccffccccccccpp....",
"......decccccccced......",
".......#abccccba#......."};
