/* XPM */
static char * manuals_bg_xpm[] = {
"22 22 6 1",
" 	c None",
".	c #E6E6E6",
"+	c #000080",
"@	c #585858",
"#	c #000000",
"$	c #FFFFFF",
"......................",
"......................",
".............+++++@...",
"............++..@++@..",
"...........++@...+++..",
"...........++@...+++..",
"...........@++..@++@..",
"...##...........++@...",
"..#@$#....###..++@....",
"..#@$$#.##$$#@++@.....",
"..#@$$$#@$$$#@++@.....",
"..#@$$$#$$$$#@#.......",
"..#@$$$#@$$$#@+++.....",
"..#@$$$#$$$$#@+++.....",
"..#@$$$#@$$$#@#.......",
"..#@$$$#$$$$#@#.......",
"...#@$$#@$$##@#.......",
"....#@$#$##$$@#.......",
".....#@##@@@@@#.......",
".....##@#######.......",
"......##..............",
"......................"};
