/* XPM */
static char * paste_bg_xpm[] = {
"24 24 6 1",
" 	c None",
".	c #E6E6E6",
"+	c #000000",
"@	c #D1D1D1",
"#	c #626262",
"$	c #ADADAD",
"........................",
"........................",
"........................",
".........+++............",
".......++@@@+......+....",
".....++@@@@@+...+++++...",
"...++@@#+#$@@+..+++++...",
"..+@@@#@$##@@+.....+....",
"..+@@@#$##@@@@+.........",
"...+@@##$@@@@@+.++......",
"...+@@@@@@@@@@++@$+.....",
"....+@@@@@@@++$$@@+.....",
"....+@@@@@@@+@#$@@$+....",
".....+@@@@@@+@#$@@@+....",
".....+@@@@@@+#$@@@@$+...",
"......+@@@@$+$@@@@@@$+..",
"......+$$.$$+$@@@@@@@+..",
".......+$$$$++@@@@@@@$+.",
".......+$$++.+$@@@@$++..",
"........++....+@@$++....",
"..............+$++......",
"...............+........",
"........................",
"........................"};
