/* XPM */
static char * right_arrow_bg_xpm[] = {
"24 24 42 1",
" 	c None",
".	c #E6E6E6",
"+	c #000000",
"@	c #8CA782",
"#	c #B1CDAE",
"$	c #77A16E",
"%	c #B4CEB1",
"&	c #ACC8A9",
"*	c #709867",
"=	c #C1D6BD",
"-	c #BDD3B8",
";	c #BFD4BB",
">	c #C2D7BE",
",	c #B0CAAD",
"'	c #B2CBB0",
")	c #AAC7A8",
"!	c #0F1308",
"~	c #AEC5A8",
"{	c #AEC8AD",
"]	c #ABC7A8",
"^	c #AAC6A7",
"/	c #A8C6A5",
"(	c #ADC8AD",
"_	c #A8C7A8",
":	c #A5C4A3",
"<	c #7F9F76",
"[	c #A6BFA0",
"}	c #ABC7AA",
"|	c #A7C5A4",
"1	c #A9C7A6",
"2	c #AFC8AD",
"3	c #A4C3A2",
"4	c #6B9060",
"5	c #778E6F",
"6	c #698D60",
"7	c #6B9063",
"8	c #445B2C",
"9	c #6B8661",
"0	c #5B7950",
"a	c #6C8562",
"b	c #65815C",
"c	c #506B46",
"........................",
"........................",
"........................",
"...........+............",
"...........++...........",
"...........+@+..........",
"...........+#$+.........",
"....++++++++%&*+........",
"....+=-;>>>>,')*!.......",
"....+~{]]]^/)(_:<+......",
"....+[}/|/1]&)]234+.....",
"....+56777777777768+....",
"....+9000000000008+.....",
"....+a00000000008+......",
"....+bcccccc0008+.......",
"....++++++++c08+........",
"...........+c8+.........",
"...........+8+..........",
"...........++...........",
"...........+............",
"........................",
"........................",
"........................",
"........................"};
