/* XPM */
static char * save_bg_xpm[] = {
"24 24 5 1",
" 	c None",
".	c #E6E6E6",
"+	c #010101",
"@	c #9E9E9E",
"#	c #626262",
"........................",
"........................",
"........................",
"........................",
".............++.........",
"...........++@#+........",
".........++.@.@+........",
".......++.@...@@+.......",
".....++.@......#+.......",
"...++@.........@++......",
"..+@............@+......",
"..+#@...........@#+.....",
"...+@..........@@@+.....",
"...+#@.......@@##@#+....",
"....+@.....@@###@#@+....",
"....+#@..@@#@..#@#@#+...",
".....+@@@#.....@#@#++...",
".....+#@@..#....@@+++...",
"......+@@#.+@..@#++.....",
"......+#@@..@.@++.......",
".......+#@#.@++.........",
"........+++++...........",
"........................",
"........................"};
