/* XPM */
static char * search_bg_xpm[] = {
"24 24 9 1",
" 	c None",
".	c #E6E6E6",
"+	c #010101",
"@	c #A9A997",
"#	c #E7E7D1",
"$	c #46463E",
"%	c #CECEB8",
"&	c #5C5C57",
"*	c #878779",
"........................",
"........................",
".............+..........",
"...........++@+.........",
".........++@##$.........",
".......++@#####+........",
".....++@%######@+.......",
"....+&&#%%######$.......",
"....+#$@%########+......",
"....+##$%%#######@+.....",
"....+##$*%@$++$%##+.....",
"....+#&@%@$@%%*$%##+....",
"....++@%#$@##%@*$##%+...",
"....+&###+%.%@@@+####+..",
"....+@###+%#@@@*+###*+..",
".....+###$*@@@*&$##++...",
".....+@##@$*@@&++#+.....",
"......&###@$++$&++......",
"......+#######%++++.....",
".......+#####@+..+++....",
".......+@##%$+....+++...",
"........+#@+.......++...",
".........++.............",
"........................"};
