/* XPM */
static char * stop_bg_xpm[] = {
"22 22 6 1",
" 	c None",
".	c #E6E6E6",
"+	c #000000",
"@	c #FF0000",
"#	c #808000",
"$	c #008000",
"......................",
"......................",
"......................",
"........+++++++.......",
"......+++++++++++.....",
".......+++@@@+++......",
".......+++@@@+++......",
".......+++++++++......",
"........+++++++.......",
"......+++++++++++.....",
".......+++###+++......",
".......++++#++++......",
".......+++++++++......",
"........+++++++.......",
"......+++++++++++.....",
".......+++$$$+++......",
".......++++$++++......",
".......+++++++++......",
"........+++++++.......",
"......................",
"......................",
"......................"};
