/* XPM */
static char * wordhelp_bg_xpm[] = {
"24 24 8 1",
" 	c None",
".	c #E6E6E6",
"+	c #000000",
"@	c #B3C8AF",
"#	c #E0E9DF",
"$	c #00FF00",
"%	c #008000",
"&	c #93B28D",
"........................",
"........................",
"........................",
"........................",
".........+++++..........",
"........+@####+.........",
".$$$...+#######+....$$$.",
".$%$..+@#@+++@#@+...$%$.",
".$%$...+#+...+##+...$%$.",
".$%$...#+....+#@+...$%$.",
".$%$$$$$$$$$$$$$$$$$$%$.",
".$%%%%%%%%%%%%%%%%%%%%$.",
".$%$$$$$$$$$$$$$$$$$$%$.",
".$%$.....+&#&+......$%$.",
".$%$.....+#&+.......$%$.",
".$%$.....++++.......$%$.",
".$$$................$$$.",
"..........++............",
".........+#@+...........",
".........+@&+...........",
"..........++............",
"........................",
"........................",
"........................"};
